<svg version="1.2" xmlns="http://www.w3.org/2000/svg" viewBox="0 0 1024 576" width="102" height="57">
	<title>skodalogo</title>
	<style>
		.s0 { fill: #0e3a2f } 
		.s1 { fill: #0d3b2e } 
	</style>
	<path class="s0" d="m498.5 3.4c-102.2 0-185.1 82.9-185.1 185.1 0 102.2 82.9 185 185.1 185 102.2 0 185-82.8 185-185 0-102.2-82.8-185.1-185-185.1zm0 354.1c-93.4 0-169.1-75.7-169.1-169 0-93.4 75.7-169.1 169.1-169.1 93.3 0 169 75.7 169 169.1 0 93.3-75.7 169-169 169zm80-111.5l-4.2 11.2h-15.1c4-10.9 55.1-132.9-45.3-215.6q-7.9-0.8-15.8-0.8-8 0-15.8 0.9-7.9 0.8-15.7 2.6-7.7 1.7-15.2 4.2c3.3 2.7 38.1 31.3 54.5 66.5l-4.8 1.3c-9-9.8-41.9-46-73.2-57.6q-6.2 3.4-12.2 7.5-5.9 4-11.4 8.6-5.6 4.5-10.6 9.6-5.1 5.1-9.6 10.7c14.7 7.5 53.1 30.4 67.7 48.3-0.9 0.3-4.1 2.1-4.1 2.1-26.8-20.3-74.4-30.9-76.8-31.4q-3.7 6.4-6.8 13.1-3.1 6.7-5.5 13.7-2.4 7.1-4 14.3-1.7 7.2-2.6 14.5c73.6 14.9 93.5 48.9 96.8 87.5h-13.9l-24-10.5q-0.4-0.1-0.9-0.3-0.5-0.1-1-0.2-0.5-0.1-1-0.2-0.5 0-1-0.1h-44.6q2.7 6.3 5.9 12.2 3.2 6 6.9 11.7 3.7 5.6 8 10.9 4.2 5.3 8.9 10.2h19c1.7 0 3.1-0.2 4.5-1l19.3-9.9h139.4l4.2 11.2q6.4-0.7 12.6-2.6 6.3-1.8 12.1-4.7 5.8-2.9 11-6.7 5.2-3.9 9.7-8.6-4.5-4.7-9.7-8.5-5.2-3.9-11-6.8-5.8-2.9-12.1-4.7-6.2-1.9-12.6-2.6zm-53.7-5.8c-7.4 0-14.1-4.5-16.9-11.3-2.8-6.9-1.3-14.7 4-19.9 5.2-5.3 13.1-6.8 19.9-4 6.8 2.8 11.3 9.5 11.3 16.9 0 2.4-0.5 4.8-1.4 7-1 2.2-2.3 4.2-4 5.9-1.7 1.7-3.7 3-5.9 4-2.2 0.9-4.6 1.4-7 1.4z"/>
	<path class="s1" d="m101.6 571.6l15.2-24.4h88.3c5 0 8.3-3.3 8.3-8.3v-14.1h-75.9c-22.7 0-32.7-10-32.7-32.2v-9.5c0-16.6 9.8-26.6 25.3-26.6h1.7v35.7c0 5 3.3 8.2 8.3 8.2h73.5c16.7 0 26.7 10 26.7 26.4v12.6c0 21.5-10.6 32.2-32.6 32.2zm501.6 0v-115.1h96.4c28.7 0 45.2 16.5 45.2 43.9v27.2c0 27.4-16.5 44-45.2 44h-96.4zm27.4-24.8h68.3c11.3 0 18.5-7 18.5-17.9v-29.8c0-10.8-7.2-17.8-18.5-17.8h-68.3zm-101.9 24.8h-58.9c-27.8 0-43.9-16.1-43.9-42.8v-29.4c0-26.7 16.1-42.8 43.9-42.8h58.9c27.9 0 44 16.1 44 42.8v29.4c0 26.7-16.1 42.8-44 42.8zm-58.2-24.8h57.6c10.4 0 17.2-6.5 17.2-16.7v-32c0-10.2-6.8-16.7-17.2-16.7h-57.6c-10.5 0-17.2 6.5-17.2 16.7v32c0 10.2 6.7 16.7 17.2 16.7zm285.5 24.8l64.6-115h38.1l64.5 115h-31.3l-11.1-19.8h-55l-14.8-23.5-24.3 43.3h-30.7zm55.7-44.6h55.2l-27.6-48.9zm-652.9-46.5l-15.7-23.9h94.6l-15.2 23.9h-63.7zm111.7 91.1v-115h27.4v44.8h36.3l47.2-44.8h36.3l-60 57.1 61.1 57.9h-38.5l-47.2-45.5h-35.2v45.5h-27.4z"/>
</svg>